<?xml version="1.0" encoding="UTF-8"?>
<svg width="20px" height="13px" viewBox="0 0 20 13" version="1.1" xmlns="http://www.w3.org/2000/svg" xmlns:xlink="http://www.w3.org/1999/xlink">
    <!-- Generator: Sketch 50.2 (55047) - http://www.bohemiancoding.com/sketch -->
    <title>Group 4</title>
    <desc>Created with Sketch.</desc>
    <defs></defs>
    <g id="Page-1" stroke="none" stroke-width="1" fill="none" fill-rule="evenodd">
        <g id="Extra-large:-Desktops---12-col-Copy-3" transform="translate(-1143.000000, -992.000000)">
            <g id="Group-4" transform="translate(1143.000000, 988.000000)">
                <rect id="Rectangle-2" x="0" y="0" width="20" height="20"></rect>
                <g id="behance" transform="translate(0.000000, 4.000000)" fill="#A9A9A9" fill-rule="nonzero">
                    <path d="M8.05555556,5.63194444 C9.15972222,5.10416667 9.73611111,4.30555556 9.73611111,3.0625 C9.73611111,0.611111111 7.90972222,0.0138888889 5.80208333,0.0138888889 L0,0.0138888889 L0,12.3194444 L5.96527778,12.3194444 C8.20138889,12.3194444 10.3020833,11.2465278 10.3020833,8.74652778 C10.3020833,7.20138889 9.56944444,6.05902778 8.05555556,5.63194444 Z M2.70486111,2.11458333 L5.24305556,2.11458333 C6.21875,2.11458333 7.09722222,2.38888889 7.09722222,3.52083333 C7.09722222,4.56597222 6.41319444,4.98611111 5.44791667,4.98611111 L2.70486111,4.98611111 L2.70486111,2.11458333 Z M5.59722222,10.2291667 L2.70486111,10.2291667 L2.70486111,6.84027778 L5.65277778,6.84027778 C6.84375,6.84027778 7.59722222,7.33680556 7.59722222,8.59722222 C7.59722222,9.84027778 6.69791667,10.2291667 5.59722222,10.2291667 Z M18.0451389,1.87152778 L13.0555556,1.87152778 L13.0555556,0.659722222 L18.0451389,0.659722222 L18.0451389,1.87152778 Z M20,7.99305556 C20,5.35763889 18.4583333,3.15972222 15.6631944,3.15972222 C12.9479167,3.15972222 11.1041667,5.20138889 11.1041667,7.875 C11.1041667,10.6493056 12.8506944,12.5520833 15.6631944,12.5520833 C17.7916667,12.5520833 19.1701389,11.59375 19.8333333,9.55555556 L17.6736111,9.55555556 C17.4409722,10.3159722 16.4826389,10.71875 15.7395833,10.71875 C14.3055556,10.71875 13.5520833,9.87847222 13.5520833,8.45138889 L19.9791667,8.45138889 C19.9895833,8.30555556 20,8.14930556 20,7.99305556 Z M13.5555556,6.90972222 C13.6354167,5.73958333 14.4131944,5.00694444 15.5868056,5.00694444 C16.8159722,5.00694444 17.4340278,5.72916667 17.5381944,6.90972222 L13.5555556,6.90972222 Z" id="Shape"></path>
                </g>
            </g>
        </g>
    </g>
</svg>