<?xml version="1.0" encoding="UTF-8"?>
<svg width="20px" height="20px" viewBox="0 0 20 20" version="1.1" xmlns="http://www.w3.org/2000/svg" xmlns:xlink="http://www.w3.org/1999/xlink">
    <!-- Generator: Sketch 50.2 (55047) - http://www.bohemiancoding.com/sketch -->
    <title>dribbble</title>
    <desc>Created with Sketch.</desc>
    <defs></defs>
    <g id="Page-1" stroke="none" stroke-width="1" fill="none" fill-rule="evenodd">
        <g id="Extra-large:-Desktops---12-col-Copy-3" transform="translate(-1215.000000, -988.000000)" fill="#A9A9A9" fill-rule="nonzero">
            <g id="dribbble" transform="translate(1215.000000, 988.000000)">
                <path d="M10,0 C4.48596774,0 0,4.48596774 0,10 C0,15.5140323 4.48596774,20 10,20 C15.5140323,20 20,15.5140323 20,10 C20,4.48596774 15.5140323,0 10,0 Z M16.6116935,4.61153226 C17.8013306,6.065 18.5217339,7.91625 18.5405242,9.93229839 C18.2589113,9.87274194 15.4349597,9.29995968 12.5928629,9.65737903 C12.3609274,9.09120968 12.1420161,8.59314516 11.8421774,7.97939516 C15.0002823,6.69 16.4316129,4.85512097 16.6116935,4.61153226 Z M15.6621371,3.62379032 C15.5085081,3.84262097 14.2227419,5.57080645 11.1854839,6.70923387 C9.78580645,4.13762097 8.23447581,2.02504032 7.9983871,1.70891129 C10.7070968,1.05596774 13.5615323,1.76012097 15.6621371,3.62379032 Z M6.36858871,2.28306452 C6.59379032,2.59189516 8.12012097,4.70709677 9.53540323,7.22294355 C5.53995968,8.28395161 2.0208871,8.26866935 1.63887097,8.26362903 C2.19274194,5.61310484 3.97895161,3.41020161 6.36858871,2.28306452 Z M1.45846774,10.0130242 C1.45846774,9.92568548 1.46020161,9.83875 1.46282258,9.75201613 C1.83653226,9.75967742 5.97572581,9.81302419 10.2412903,8.53645161 C10.4858065,9.015 10.7193952,9.50076613 10.9337903,9.98600806 C7.84512097,10.8559677 5.03887097,13.3540323 3.65431452,15.7241532 C2.29008065,14.209879 1.45846774,12.2068548 1.45846774,10.0130242 Z M4.7571371,16.7514516 C5.64935484,14.9275403 8.07076613,12.5731452 11.5143548,11.3983871 C12.7135484,14.5146371 13.2094758,17.1263306 13.3364919,17.8757258 C10.5900403,19.0456048 7.2875,18.7246371 4.7571371,16.7514516 Z M14.7724597,17.09375 C14.6849194,16.5741532 14.2302823,14.0737097 13.1131048,11.0037097 C15.7897177,10.5752419 18.1413306,11.2766129 18.4335484,11.3688306 C18.0528226,13.7454839 16.6886694,15.7980242 14.7724597,17.09375 Z" id="Shape"></path>
            </g>
        </g>
    </g>
</svg>