<?xml version="1.0" encoding="UTF-8"?>
<svg width="20px" height="20px" viewBox="0 0 20 20" version="1.1" xmlns="http://www.w3.org/2000/svg" xmlns:xlink="http://www.w3.org/1999/xlink">
    <!-- Generator: Sketch 50.2 (55047) - http://www.bohemiancoding.com/sketch -->
    <title>facebook-square</title>
    <desc>Created with Sketch.</desc>
    <defs></defs>
    <g id="Page-1" stroke="none" stroke-width="1" fill="none" fill-rule="evenodd">
        <g id="Extra-large:-Desktops---12-col-Copy-3" transform="translate(-1179.000000, -988.000000)" fill="#A9A9A9" fill-rule="nonzero">
            <g id="facebook-square" transform="translate(1179.000000, 988.000000)">
                <path d="M20,2.14285714 L20,17.8571429 C20,19.0401786 19.0401786,20 17.8571429,20 L14.0491071,20 L14.0491071,12.0892857 L16.7544643,12.0892857 L17.1428571,9.07142857 L14.0491071,9.07142857 L14.0491071,7.14285714 C14.0491071,6.26785714 14.2901786,5.67410714 15.5446429,5.67410714 L17.1428571,5.67410714 L17.1428571,2.97767857 C16.8660714,2.94196429 15.9196429,2.85714286 14.8125,2.85714286 C12.5089286,2.85714286 10.9285714,4.26339286 10.9285714,6.84821429 L10.9285714,9.07589286 L8.21428571,9.07589286 L8.21428571,12.09375 L10.9330357,12.09375 L10.9330357,20 L2.14285714,20 C0.959821429,20 0,19.0401786 0,17.8571429 L0,2.14285714 C0,0.959821429 0.959821429,0 2.14285714,0 L17.8571429,0 C19.0401786,0 20,0.959821429 20,2.14285714 Z" id="Shape"></path>
            </g>
        </g>
    </g>
</svg>