<?xml version="1.0" encoding="UTF-8"?>
<svg width="20px" height="20px" viewBox="0 0 20 20" version="1.1" xmlns="http://www.w3.org/2000/svg" xmlns:xlink="http://www.w3.org/1999/xlink">
    <!-- Generator: Sketch 50.2 (55047) - http://www.bohemiancoding.com/sketch -->
    <title>instagram</title>
    <desc>Created with Sketch.</desc>
    <defs></defs>
    <g id="Page-1" stroke="none" stroke-width="1" fill="none" fill-rule="evenodd">
        <g id="Extra-large:-Desktops---12-col-Copy-3" transform="translate(-1251.000000, -988.000000)" fill="#A9A9A9" fill-rule="nonzero">
            <g id="instagram" transform="translate(1251.000000, 988.000000)">
                <path d="M9.97327394,4.85523385 C7.1403118,4.85523385 4.85523385,7.1403118 4.85523385,9.97327394 C4.85523385,12.8062361 7.1403118,15.091314 9.97327394,15.091314 C12.8062361,15.091314 15.091314,12.8062361 15.091314,9.97327394 C15.091314,7.1403118 12.8062361,4.85523385 9.97327394,4.85523385 Z M10.0089087,13.2917595 C8.17817372,13.2917595 6.68151448,11.7995546 6.68151448,9.96436526 C6.68151448,8.12917595 8.17371938,6.63697105 10.0089087,6.63697105 C11.844098,6.63697105 13.3363029,8.12917595 13.3363029,9.96436526 C13.3363029,11.7995546 11.8396437,13.2917595 10.0089087,13.2917595 Z M16.5077951,4.66815145 C16.5077951,5.33184855 15.9732739,5.86191537 15.3140312,5.86191537 C14.6503341,5.86191537 14.1202673,5.32739421 14.1202673,4.66815145 C14.1202673,4.00890869 14.6547884,3.47438753 15.3140312,3.47438753 C15.9732739,3.47438753 16.5077951,4.00890869 16.5077951,4.66815145 Z M19.8964365,5.86525612 C19.8207127,4.26614699 19.4554566,2.84966592 18.2839644,1.68262806 C17.1169265,0.5155902 15.7004454,0.150334076 14.1013363,0.070155902 C12.4532294,-0.0233853007 7.51336303,-0.0233853007 5.86525612,0.070155902 C4.27060134,0.145879733 2.85412027,0.511135857 1.68262806,1.67817372 C0.511135857,2.84521158 0.150334076,4.26169265 0.070155902,5.86080178 C-0.0233853007,7.50890869 -0.0233853007,12.4487751 0.070155902,14.096882 C0.145879733,15.6959911 0.511135857,17.1124722 1.68262806,18.27951 C2.85412027,19.4465479 4.26614699,19.811804 5.86525612,19.8919822 C7.51336303,19.9855234 12.4532294,19.9855234 14.1013363,19.8919822 C15.7004454,19.8162584 17.1169265,19.4510022 18.2839644,18.27951 C19.4510022,17.1124722 19.8162584,15.6959911 19.8964365,14.096882 C19.9899777,12.4487751 19.9899777,7.51336303 19.8964365,5.86525612 Z M17.7580959,15.8605457 C17.4106571,16.733597 16.7380513,17.4062028 15.8605457,17.7580959 C14.5465146,18.279254 11.4284745,18.1589867 9.97635867,18.1589867 C8.52424285,18.1589867 5.40174842,18.2747996 4.09217158,17.7580959 C3.21912036,17.4106571 2.54651457,16.7380513 2.19462147,15.8605457 C1.67346334,14.5465146 1.7937306,11.4284745 1.7937306,9.97635867 C1.7937306,8.52424285 1.67791769,5.40174842 2.19462147,4.09217158 C2.54206023,3.21912036 3.21466602,2.54651457 4.09217158,2.19462147 C5.40620277,1.67346334 8.52424285,1.7937306 9.97635867,1.7937306 C11.4284745,1.7937306 14.5509689,1.67791769 15.8605457,2.19462147 C16.733597,2.54206023 17.4062028,3.21466602 17.7580959,4.09217158 C18.279254,5.40620277 18.1589867,8.52424285 18.1589867,9.97635867 C18.1589867,11.4284745 18.279254,14.5509689 17.7580959,15.8605457 Z" id="Shape"></path>
            </g>
        </g>
    </g>
</svg>