<?xml version="1.0" encoding="UTF-8"?>
<svg width="20px" height="20px" viewBox="0 0 20 20" version="1.1" xmlns="http://www.w3.org/2000/svg" xmlns:xlink="http://www.w3.org/1999/xlink">
    <!-- Generator: Sketch 50.2 (55047) - http://www.bohemiancoding.com/sketch -->
    <title>linkedin</title>
    <desc>Created with Sketch.</desc>
    <defs></defs>
    <g id="Page-1" stroke="none" stroke-width="1" fill="none" fill-rule="evenodd">
        <g id="Extra-large:-Desktops---12-col-Copy-3" transform="translate(-1107.000000, -988.000000)" fill="#A9A9A9" fill-rule="nonzero">
            <g id="linkedin" transform="translate(1107.000000, 988.000000)">
                <path d="M18.5714286,0 L1.42410714,0 C0.638392857,0 0,0.647321429 0,1.44196429 L0,18.5580357 C0,19.3526786 0.638392857,20 1.42410714,20 L18.5714286,20 C19.3571429,20 20,19.3526786 20,18.5580357 L20,1.44196429 C20,0.647321429 19.3571429,0 18.5714286,0 Z M6.04464286,17.1428571 L3.08035714,17.1428571 L3.08035714,7.59821429 L6.04910714,7.59821429 L6.04910714,17.1428571 L6.04464286,17.1428571 Z M4.5625,6.29464286 C3.61160714,6.29464286 2.84375,5.52232143 2.84375,4.57589286 C2.84375,3.62946429 3.61160714,2.85714286 4.5625,2.85714286 C5.50892857,2.85714286 6.28125,3.62946429 6.28125,4.57589286 C6.28125,5.52678571 5.51339286,6.29464286 4.5625,6.29464286 Z M17.15625,17.1428571 L14.1919643,17.1428571 L14.1919643,12.5 C14.1919643,11.3928571 14.1696429,9.96875 12.6517857,9.96875 C11.1071429,9.96875 10.8705357,11.1741071 10.8705357,12.4196429 L10.8705357,17.1428571 L7.90625,17.1428571 L7.90625,7.59821429 L10.75,7.59821429 L10.75,8.90178571 L10.7901786,8.90178571 C11.1875,8.15178571 12.15625,7.36160714 13.5982143,7.36160714 C16.5982143,7.36160714 17.15625,9.33928571 17.15625,11.9107143 L17.15625,17.1428571 Z" id="Shape"></path>
            </g>
        </g>
    </g>
</svg>