<?xml version="1.0" encoding="UTF-8"?>
<svg width="144px" height="26px" viewBox="0 0 144 26" version="1.1" xmlns="http://www.w3.org/2000/svg" xmlns:xlink="http://www.w3.org/1999/xlink">
    <!-- Generator: Sketch 50.2 (55047) - http://www.bohemiancoding.com/sketch -->
    <title>Artboard</title>
    <desc>Created with Sketch.</desc>
    <defs></defs>
    <g id="Artboard" stroke="none" stroke-width="1" fill="none" fill-rule="evenodd">
        <g id="Group-14">
            <path d="M32.634,19.144 C31.6499951,19.144 30.7470041,19.0120013 29.925,18.748 C29.1029959,18.4839987 28.3980029,18.0940026 27.81,17.578 L28.476,16.21 C29.1000031,16.7140025 29.7449967,17.0769989 30.411,17.299 C31.0770033,17.5210011 31.8239959,17.632 32.652,17.632 C33.6000047,17.632 34.3319974,17.4550018 34.848,17.101 C35.3640026,16.7469982 35.622,16.2460032 35.622,15.598 C35.622,15.0459972 35.3820024,14.6350013 34.902,14.365 C34.4219976,14.0949986 33.6540053,13.8400012 32.598,13.6 C31.589995,13.3839989 30.7620032,13.1380014 30.114,12.862 C29.4659968,12.5859986 28.9590018,12.2110024 28.593,11.737 C28.2269982,11.2629976 28.044,10.6600037 28.044,9.928 C28.044,9.18399628 28.238998,8.53000282 28.629,7.966 C29.0190019,7.40199718 29.5739964,6.96100159 30.294,6.643 C31.0140036,6.32499841 31.8479953,6.166 32.796,6.166 C33.6840044,6.166 34.5209961,6.30099865 35.307,6.571 C36.0930039,6.84100135 36.7379975,7.22799748 37.242,7.732 L36.594,9.1 C36.0059971,8.6199976 35.4030031,8.26300117 34.785,8.029 C34.1669969,7.79499883 33.5100035,7.678 32.814,7.678 C31.9019954,7.678 31.1850026,7.86699811 30.663,8.245 C30.1409974,8.62300189 29.88,9.14799664 29.88,9.82 C29.88,10.3960029 30.1079977,10.8309985 30.564,11.125 C31.0200023,11.4190015 31.751995,11.6859988 32.76,11.926 C33.8160053,12.1660012 34.6709967,12.4149987 35.325,12.673 C35.9790033,12.9310013 36.500998,13.2849977 36.891,13.735 C37.281002,14.1850023 37.476,14.7699964 37.476,15.49 C37.476,16.2220037 37.281002,16.8639972 36.891,17.416 C36.500998,17.9680028 35.9430036,18.3939985 35.217,18.694 C34.4909964,18.9940015 33.630005,19.144 32.634,19.144 Z M39.546,19 L39.546,6.31 L41.364,6.31 L41.364,19 L39.546,19 Z M47.574,10 C48.7500059,10 49.6229972,10.2939971 50.193,10.882 C50.7630028,11.4700029 51.048,12.363994 51.048,13.564 L51.048,19 L49.302,19 L49.302,17.542 C49.0739989,18.0580026 48.7350023,18.4509987 48.285,18.721 C47.8349977,18.9910014 47.310003,19.126 46.71,19.126 C46.1339971,19.126 45.6060024,19.0090012 45.126,18.775 C44.6459976,18.5409988 44.2710014,18.2140021 44.001,17.794 C43.7309987,17.3739979 43.596,16.9060026 43.596,16.39 C43.596,15.7539968 43.7609984,15.2530018 44.091,14.887 C44.4210017,14.5209982 44.9669962,14.2600008 45.729,14.104 C46.4910038,13.9479992 47.5379933,13.87 48.87,13.87 L49.284,13.87 L49.284,13.348 C49.284,12.6759966 49.1430014,12.1900015 48.861,11.89 C48.5789986,11.5899985 48.1200032,11.44 47.484,11.44 C46.487995,11.44 45.492005,11.7459969 44.496,12.358 L43.956,11.08 C44.4240023,10.7559984 44.9909967,10.495001 45.657,10.297 C46.3230033,10.098999 46.9619969,10 47.574,10 Z M47.034,17.776 C47.6940033,17.776 48.2339979,17.5510022 48.654,17.101 C49.0740021,16.6509978 49.284,16.0720035 49.284,15.364 L49.284,14.896 L48.96,14.896 C48.0239953,14.896 47.3040025,14.9379996 46.8,15.022 C46.2959975,15.1060004 45.9360011,15.246999 45.72,15.445 C45.5039989,15.643001 45.396,15.9279981 45.396,16.3 C45.396,16.7200021 45.5489985,17.0709986 45.855,17.353 C46.1610015,17.6350014 46.5539976,17.776 47.034,17.776 Z M59.76,10.234 L61.578,10.234 L57.762,19 L56.124,19 L52.344,10.234 L54.252,10.234 L56.988,16.948 L59.76,10.234 Z M66.564,10 C67.7400059,10 68.6129972,10.2939971 69.183,10.882 C69.7530029,11.4700029 70.038,12.363994 70.038,13.564 L70.038,19 L68.292,19 L68.292,17.542 C68.0639989,18.0580026 67.7250023,18.4509987 67.275,18.721 C66.8249978,18.9910014 66.300003,19.126 65.7,19.126 C65.1239971,19.126 64.5960024,19.0090012 64.116,18.775 C63.6359976,18.5409988 63.2610014,18.2140021 62.991,17.794 C62.7209987,17.3739979 62.586,16.9060026 62.586,16.39 C62.586,15.7539968 62.7509984,15.2530018 63.081,14.887 C63.4110017,14.5209982 63.9569962,14.2600008 64.719,14.104 C65.4810038,13.9479992 66.5279933,13.87 67.86,13.87 L68.274,13.87 L68.274,13.348 C68.274,12.6759966 68.1330014,12.1900015 67.851,11.89 C67.5689986,11.5899985 67.1100032,11.44 66.474,11.44 C65.477995,11.44 64.482005,11.7459969 63.486,12.358 L62.946,11.08 C63.4140023,10.7559984 63.9809967,10.495001 64.647,10.297 C65.3130033,10.098999 65.9519969,10 66.564,10 Z M66.024,17.776 C66.6840033,17.776 67.2239979,17.5510022 67.644,17.101 C68.0640021,16.6509978 68.274,16.0720035 68.274,15.364 L68.274,14.896 L67.95,14.896 C67.0139953,14.896 66.2940025,14.9379996 65.79,15.022 C65.2859975,15.1060004 64.9260011,15.246999 64.71,15.445 C64.4939989,15.643001 64.386,15.9279981 64.386,16.3 C64.386,16.7200021 64.5389985,17.0709986 64.845,17.353 C65.1510015,17.6350014 65.5439976,17.776 66.024,17.776 Z M78.948,17.488 L86.076,17.488 L86.076,19 L76.842,19 L76.842,17.632 L83.772,7.822 L76.842,7.822 L76.842,6.31 L85.896,6.31 L85.896,7.66 L78.948,17.488 Z M92.718,10 C94.8180105,10 95.868,11.1819882 95.868,13.546 L95.868,19 L94.05,19 L94.05,13.636 C94.05,12.8919963 93.9030015,12.3460017 93.609,11.998 C93.3149985,11.6499983 92.8560031,11.476 92.232,11.476 C91.4999963,11.476 90.9120022,11.7039977 90.468,12.16 C90.0239978,12.6160023 89.802,13.2279962 89.802,13.996 L89.802,19 L87.984,19 L87.984,6.31 L89.802,6.31 L89.802,11.548 C90.1020015,11.0439975 90.5039975,10.6600013 91.008,10.396 C91.5120025,10.1319987 92.0819968,10 92.718,10 Z M98.352,19 L98.352,10.216 L100.17,10.216 L100.17,19 L98.352,19 Z M98.226,6.292 L100.314,6.292 L100.314,8.182 L98.226,8.182 L98.226,6.292 Z M110.808,6.31 L110.808,19 L109.008,19 L109.008,17.488 C108.743999,18.0160026 108.360003,18.4209986 107.856,18.703 C107.351997,18.9850014 106.770003,19.126 106.11,19.126 C105.353996,19.126 104.679003,18.9340019 104.085,18.55 C103.490997,18.1659981 103.029002,17.6260035 102.699,16.93 C102.368998,16.2339965 102.204,15.4360045 102.204,14.536 C102.204,13.6239954 102.368998,12.8260034 102.699,12.142 C103.029002,11.4579966 103.487997,10.9300019 104.076,10.558 C104.664003,10.1859981 105.341996,10 106.11,10 C106.770003,10 107.348998,10.1409986 107.847,10.423 C108.345002,10.7050014 108.725999,11.1039974 108.99,11.62 L108.99,6.31 L110.808,6.31 Z M106.542,17.686 C107.334004,17.686 107.942998,17.4160027 108.369,16.876 C108.795002,16.3359973 109.008,15.568005 109.008,14.572 C109.008,13.575995 108.795002,12.8080027 108.369,12.268 C107.942998,11.7279973 107.334004,11.458 106.542,11.458 C105.749996,11.458 105.135002,11.7249973 104.697,12.259 C104.258998,12.7930027 104.04,13.5519951 104.04,14.536 C104.04,15.5200049 104.261998,16.2909972 104.706,16.849 C105.150002,17.4070028 105.761996,17.686 106.542,17.686 Z M121.626,19 L119.322,19 L115.164,14.86 L115.164,19 L113.346,19 L113.346,6.31 L115.164,6.31 L115.164,14.176 L119.016,10.234 L121.266,10.234 L117.108,14.446 L121.626,19 Z M126.468,19.126 C125.603996,19.126 124.845003,18.9400019 124.191,18.568 C123.536997,18.1959981 123.033002,17.6650035 122.679,16.975 C122.324998,16.2849966 122.148,15.4840046 122.148,14.572 C122.148,13.6479954 122.324998,12.8410034 122.679,12.151 C123.033002,11.4609966 123.536997,10.9300019 124.191,10.558 C124.845003,10.1859981 125.603996,10 126.468,10 C127.332004,10 128.090997,10.1859981 128.745,10.558 C129.399003,10.9300019 129.902998,11.4609966 130.257,12.151 C130.611002,12.8410034 130.788,13.6479954 130.788,14.572 C130.788,15.4840046 130.611002,16.2849966 130.257,16.975 C129.902998,17.6650035 129.399003,18.1959981 128.745,18.568 C128.090997,18.9400019 127.332004,19.126 126.468,19.126 Z M126.468,17.686 C127.272004,17.686 127.886998,17.4220026 128.313,16.894 C128.739002,16.3659974 128.952,15.5920051 128.952,14.572 C128.952,13.563995 128.736002,12.7930027 128.304,12.259 C127.871998,11.7249973 127.260004,11.458 126.468,11.458 C125.675996,11.458 125.064002,11.7249973 124.632,12.259 C124.199998,12.7930027 123.984,13.563995 123.984,14.572 C123.984,15.5920051 124.196998,16.3659974 124.623,16.894 C125.049002,17.4220026 125.663996,17.686 126.468,17.686 Z M139.032,10.234 L140.85,10.234 L137.034,19 L135.396,19 L131.616,10.234 L133.524,10.234 L136.26,16.948 L139.032,10.234 Z" id="Slava-Zhidkov-Copy-2" fill="#353535"></path>
            <path d="M0,12.9898682 L6.48754883,12.9898682 L3.06527268,24.9712274 L14.6159668,9.12280273 L8.93945313,9.12280273 L12.0606448,0 L0,12.9898682 Z" id="Path-3-Copy-3" fill="#F12D3A"></path>
        </g>
    </g>
</svg>